<svg preserveAspectRatio="xMidYMid meet" xmlns="http://www.w3.org/2000/svg" width="460" height="740" viewBox="0 0 460 740" version="1.1">
	<path d="M 169 41.591 C 157.195 42.980, 143.036 45.417, 137.388 47.032 C 121.014 51.715, 92.570 72.428, 65.392 99.462 C 52.535 112.250, 52.167 112.740, 46.204 125 C 35.187 147.650, 31.581 162.417, 31.552 185 C 31.526 204.909, 34.094 217.680, 41.768 235.804 L 45.284 244.108 43.642 249.804 C 37.619 270.697, 36.323 293.823, 39.968 315.348 C 42.569 330.704, 48.751 350.657, 52.963 357.288 C 58.238 365.594, 60.353 373.291, 60.300 384 C 60.233 397.836, 59.004 401.767, 51.990 410.594 C 44.466 420.061, 43.769 421.363, 42.936 427.500 C 41.137 440.761, 44.766 450.309, 60.713 474.284 L 71.500 490.500 71.175 509.255 L 70.851 528.010 64.432 541.454 C 53.580 564.184, 50.239 577.616, 51.363 594 C 52.060 604.169, 57.967 622.626, 61.155 624.596 C 61.998 625.117, 62.111 624.776, 61.546 623.414 C 61.109 622.361, 60.539 613.400, 60.279 603.500 C 59.780 584.479, 60.808 575.996, 64.643 567.500 L 66.449 563.500 67.122 580 C 68.198 606.338, 72.245 621.932, 81.007 633.510 C 83.648 636.999, 86.124 641.349, 86.508 643.177 C 87.852 649.560, 93.142 659.040, 98.729 665.074 C 103.302 670.014, 106.273 672.078, 114.564 676.077 C 120.177 678.785, 125.223 681, 125.777 681 C 127.842 681, 137.244 690.498, 142.966 698.364 C 146.221 702.839, 150.980 708.247, 153.542 710.383 C 158.319 714.366, 168.733 721, 170.208 721 C 170.662 721, 168.664 718.043, 165.767 714.430 C 156.941 703.420, 155.521 701.079, 156.860 699.740 C 157.770 698.830, 162.936 701.020, 179.271 709.239 C 215.613 727.524, 225.617 730.810, 239.701 729.088 C 252.366 727.538, 257.130 724.861, 267.728 713.334 C 277.659 702.534, 280.467 700.660, 294.500 695.464 C 310.170 689.662, 323.524 682.696, 336.534 673.535 C 340.825 670.514, 339.180 677.688, 334.358 683.025 C 329.679 688.204, 331.439 688.126, 337.386 682.891 C 344.294 676.810, 350.566 667.391, 356.083 654.811 C 358.781 648.657, 362.083 642.020, 363.419 640.062 C 382.492 612.105, 384.227 599.834, 375.355 555.662 C 372.581 541.851, 372.953 538.837, 376.980 542.482 C 380.630 545.785, 384.177 554.727, 386.005 565.234 L 387.792 575.500 387.889 564.500 C 388.003 551.548, 385.738 540.599, 380.807 530.274 L 377.571 523.500 377.536 505.500 C 377.487 480.951, 380.864 466.356, 391.571 444.843 C 400.478 426.946, 400.201 424.885, 386.568 407.500 C 381.392 400.900, 376.478 394.359, 375.648 392.964 C 374.175 390.487, 374.504 389.875, 389.632 366.964 C 398.152 354.059, 407.794 339, 411.058 333.500 L 416.993 323.500 416.988 328.500 C 416.980 335.568, 412.913 352.587, 408.155 365.468 C 405.926 371.501, 404.242 376.576, 404.413 376.746 C 405.711 378.044, 419.587 346.052, 425.339 328.500 C 435.658 297.013, 437.975 247.793, 430.589 217 C 428.395 207.856, 428.521 207.747, 433.153 214.773 C 435.427 218.222, 437.455 220.878, 437.659 220.675 C 438.643 219.691, 426.639 184.830, 420.727 171.500 C 402.910 131.334, 343.774 79.069, 295.222 60.578 C 265.777 49.364, 194.310 38.613, 169 41.591 M 194 50.569 C 181.461 54.418, 166.339 72.696, 157.944 94.151 C 153.857 104.595, 153.368 105.139, 152.530 100.179 C 151.067 91.521, 155.460 76.830, 164.007 61.798 C 166.753 56.968, 169 52.562, 169 52.008 C 169 51.454, 167.070 51, 164.710 51 C 153.130 51, 133.822 59.493, 123.544 69.108 C 116.842 75.378, 109.304 88.188, 105.587 99.627 C 103.737 105.319, 102.100 121.435, 102.780 127.250 C 103.021 129.313, 102.882 131, 102.470 131 C 100.415 131, 96.010 123.040, 94.445 116.500 L 93.249 111.500 92.032 114.500 C 89.302 121.228, 91.995 145.502, 97.630 164.957 L 98.341 167.414 95.421 165.138 C 90.783 161.525, 86.257 155.277, 83.842 149.155 C 80.757 141.337, 80.527 117.696, 83.414 105.247 C 84.467 100.709, 84.986 96.659, 84.567 96.247 C 82.182 93.907, 72.189 112.033, 69.008 124.468 C 65.407 138.550, 67.093 161.545, 72.494 171.988 C 74.362 175.600, 74.366 176, 72.535 176 C 70.088 176, 64.012 169.959, 61.560 165.090 C 58.416 158.844, 56 147.559, 56 139.112 C 56 127.977, 53.856 128.625, 49.748 141 C 43.986 158.358, 43.441 177.287, 48.326 190.463 C 49.745 194.293, 50.669 197.664, 50.378 197.955 C 50.088 198.246, 47.787 196.300, 45.266 193.632 L 40.683 188.781 41.346 199.140 C 42.189 212.312, 46.632 229.419, 49.704 231.317 C 50.203 231.626, 54.072 226.910, 58.301 220.837 L 65.991 209.795 64.130 207.148 C 59.171 200.092, 56.195 187.809, 57.613 180.248 C 58.260 176.801, 58.266 176.808, 60.623 183.548 C 62.942 190.179, 67.783 198.745, 70.474 200.978 C 71.533 201.858, 72.850 201.338, 76.370 198.651 C 86.937 190.585, 99.321 187.002, 117.023 186.890 C 126.704 186.829, 129 186.540, 129 185.385 C 129 184.599, 127.182 180.340, 124.960 175.921 C 122.738 171.502, 119.486 163.524, 117.732 158.193 C 114.696 148.963, 114.545 147.760, 114.564 133 C 114.586 116.645, 116.436 107.951, 122.011 98 L 123.972 94.500 123.236 99 C 122.132 105.752, 122.521 132.499, 123.844 140.709 C 126.210 155.397, 129.382 157.054, 129.095 143.453 C 128.904 134.402, 130.674 123.348, 133.319 117.081 L 134.762 113.661 135.368 121.581 C 135.701 125.936, 136.452 136.250, 137.037 144.500 C 138.336 162.829, 140.316 175.239, 142.906 181.281 C 146.510 189.689, 154.292 196.701, 164.173 200.443 C 170.555 202.860, 171.504 201.937, 168.533 196.201 C 167.193 193.615, 164.977 187.605, 163.609 182.845 C 155.841 155.833, 161.770 129.708, 180.744 107.344 C 186.148 100.973, 189.089 99.237, 185.235 104.692 C 172.184 123.165, 167.261 152.633, 173.314 176.048 C 176.061 186.674, 181.606 199, 183.640 199 C 185.117 199, 185.330 198.242, 187.432 185.500 C 192.683 153.672, 206.317 129.303, 226.364 115.916 C 236.228 109.329, 235.892 110.367, 223.608 124.443 C 220.917 127.526, 218.962 130.295, 219.263 130.596 C 219.564 130.898, 222.666 128.831, 226.155 126.005 C 238.593 115.929, 261.252 106.601, 279.434 104.072 C 286.538 103.084, 307.660 102.734, 302 103.698 C 300.625 103.932, 294.550 105.405, 288.500 106.971 C 244.558 118.342, 217.325 140.719, 207.927 173.179 C 203.625 188.035, 204.519 216.038, 209.539 223.699 C 211.813 227.170, 212.647 226.435, 216.507 217.555 C 223.554 201.346, 234.888 187.529, 248.647 178.373 C 256.474 173.165, 270.646 166.313, 271.606 167.272 C 271.839 167.506, 269.588 169.318, 266.604 171.300 C 257.059 177.637, 244.720 190.054, 246.349 191.682 C 246.630 191.963, 251.293 189.682, 256.712 186.614 C 276.435 175.447, 297.634 169.809, 319.479 169.920 C 335.829 170.003, 340.950 171.426, 328 172.286 C 305.483 173.783, 285.762 180.356, 268.158 192.232 C 260.867 197.151, 250 207.212, 250 209.044 C 250 210.919, 253.177 209.952, 256.932 206.935 C 261.495 203.268, 271.393 199.993, 277.839 200.018 L 282.500 200.036 277.061 203.034 C 271.428 206.139, 267.690 209.024, 268.392 209.725 C 268.614 209.947, 272.579 208.793, 277.204 207.161 C 293.419 201.438, 319.955 197, 337.963 197 C 371.577 197, 393.509 212.593, 400.947 241.779 C 407.666 268.142, 407.501 298.361, 400.505 322.417 C 398.054 330.847, 394.020 341.392, 393.480 340.780 C 393.344 340.626, 394.289 335.325, 395.581 329 C 403.201 291.691, 400.393 258.423, 387.443 232.587 C 383.852 225.421, 379.047 218.398, 380.543 222.500 C 384.632 233.711, 387.050 249.101, 386.907 263 L 386.819 271.500 384.542 260.500 C 379.330 235.321, 368.878 218.349, 352.559 208.563 C 346.622 205.003, 342.800 204.209, 340.030 205.960 C 338.811 206.731, 339.107 207.537, 341.772 210.695 C 354.612 225.911, 364.369 242.544, 368.639 256.500 C 371.250 265.033, 371.394 266.538, 371.405 285.500 C 371.420 312.132, 368.105 327.241, 354.504 362.518 C 347.505 380.669, 334.865 403.214, 323.875 417.144 C 319.280 422.968, 320.538 422.885, 326.571 416.966 C 337.967 405.785, 348.749 389.343, 362.482 362.202 C 370.402 346.549, 371.483 346.255, 368.022 360.692 C 364.676 374.649, 352.789 401.802, 347.200 408.256 C 344.084 411.854, 347.091 411.110, 351.883 407.098 C 390.052 375.141, 423.084 305.135, 423.414 255.500 L 423.500 242.500 416.186 228.260 C 408.128 212.573, 402.657 205.686, 393.280 199.426 C 385.328 194.118, 384.939 193.672, 389 194.519 C 398.476 196.494, 408.972 204.563, 416.212 215.439 C 420.930 222.525, 422.450 222.647, 421.750 215.885 C 419.739 196.470, 405.921 176.017, 385.837 162.725 C 360.570 146.004, 335.063 138.367, 307.500 139.268 C 280.556 140.150, 263.076 147.287, 238.123 167.596 C 232.791 171.935, 235.739 167.614, 243.662 159.477 C 279.150 123.030, 332.796 121.322, 386.956 154.913 C 397.390 161.384, 398 161.563, 398 158.160 C 398 154.084, 391.738 144.297, 385.101 138 C 374.593 128.030, 362.572 122.365, 346.597 119.856 C 337.728 118.463, 314.863 119.393, 306.105 121.503 C 298.128 123.426, 297.381 122.854, 303.693 119.655 C 317.440 112.690, 337.232 111.436, 356.496 116.311 C 366.981 118.965, 367.591 118.984, 366.687 116.627 C 364.799 111.708, 320.082 78.116, 308.229 72.713 C 300.486 69.184, 279.488 69.604, 268 73.518 C 234.396 84.967, 203.925 109.597, 190.840 135.887 C 186.522 144.561, 186.086 144.174, 189.115 134.355 C 197.868 105.982, 221.167 82.123, 253.500 68.423 C 267.242 62.600, 268.748 60.605, 260.227 59.506 C 247.994 57.929, 222.683 53.715, 200.500 49.562 C 199.400 49.356, 196.475 49.809, 194 50.569 M 100.155 196.536 C 86.061 199.595, 72.566 213.437, 57.297 240.500 C 43.517 264.921, 42.806 304.173, 55.557 336.500 C 63.412 356.415, 68.964 363.038, 70.581 354.421 C 71.609 348.943, 70.223 332.739, 67.867 322.682 C 66.731 317.833, 66.020 313.647, 66.287 313.380 C 67.216 312.451, 70.866 319.547, 73.036 326.500 C 76.682 338.181, 77.704 340.486, 79.386 340.823 C 80.746 341.096, 81 340.065, 81 334.262 C 81 328.402, 78.655 308.818, 76.389 295.750 C 76.031 293.688, 76.013 292, 76.349 292 C 79 292, 84.554 309.822, 86.822 325.606 C 87.857 332.815, 89.041 339.257, 89.452 339.922 C 91.308 342.925, 96.019 334.563, 97.918 324.895 C 99.455 317.066, 99.100 340.546, 97.550 349.242 C 93.748 370.566, 82.787 392.160, 66.827 409.772 C 60.769 416.456, 57.584 423.766, 57.730 430.652 C 57.816 434.715, 64.402 447.253, 71.964 457.750 C 75.233 462.288, 77.424 466, 76.832 466 C 76.240 466, 71.988 462.323, 67.383 457.828 C 62.778 453.333, 58.770 449.896, 58.476 450.190 C 57.664 451.003, 74.991 479.675, 79.136 484.376 L 82.771 488.500 90.136 488.500 C 96.940 488.500, 97.925 488.220, 103.087 484.824 C 116.709 475.860, 126.468 476.104, 137.060 485.673 C 139.593 487.962, 141.625 489.036, 142.750 488.682 C 143.713 488.379, 147.597 486.963, 151.381 485.535 C 155.166 484.106, 161.657 482.364, 165.806 481.664 L 173.350 480.389 176.001 473.844 C 178.561 467.524, 182.933 459.576, 183.507 460.197 C 183.661 460.364, 182.961 463.650, 181.951 467.500 C 179.176 478.080, 179.339 479.675, 183.250 480.254 C 187.867 480.938, 188.865 480.289, 189.555 476.153 C 191.093 466.942, 193.863 460.059, 207.726 431 C 211.006 424.125, 213.970 417.712, 214.313 416.750 C 215.345 413.857, 216.999 414.776, 217.015 418.250 C 217.058 427.207, 219.860 424.428, 224.075 411.250 C 225.350 407.263, 226.678 404, 227.027 404 C 227.375 404, 228.410 407.488, 229.328 411.750 C 231.233 420.597, 234.718 428.437, 241.219 438.500 C 249.317 451.035, 255.841 465.852, 256.602 473.440 C 257.054 477.947, 258.181 478.963, 262.750 478.985 C 265.189 478.996, 265.997 478.563, 265.988 477.250 C 265.967 474.078, 263.139 464.765, 260.701 459.840 C 259.384 457.178, 258.675 455, 259.127 455 C 260.103 455, 269.057 467.563, 272.754 474.119 L 275.359 478.738 282.429 479.283 C 286.318 479.583, 292.512 480.822, 296.194 482.036 C 303.797 484.545, 305.787 484.295, 312.055 480.048 C 318.860 475.437, 326.505 476.572, 335.655 483.550 C 339.498 486.481, 347.880 486.913, 353.705 484.479 C 361.740 481.121, 371.034 470.703, 373.915 461.822 C 374.571 459.799, 376.874 455.411, 379.032 452.072 C 381.190 448.732, 382.494 446, 381.929 446 C 379.465 446, 374.864 449.333, 370.601 454.206 C 368.070 457.099, 366 458.896, 366 458.201 C 366 454.692, 369.813 448.752, 376.400 442 C 385.658 432.510, 387 430.447, 387 425.712 C 387 420.943, 386.117 419.263, 379.009 410.500 C 375.886 406.650, 372.532 402.266, 371.556 400.759 C 370.580 399.251, 369.409 398.247, 368.954 398.528 C 366.893 399.802, 359 412.328, 359 414.325 C 359 415.552, 358.230 417.655, 357.288 418.999 L 355.577 421.443 354.993 418.971 C 354.224 415.712, 350.961 415.729, 349.330 419 C 348.644 420.375, 347.324 423.648, 346.397 426.274 C 344.349 432.068, 338.095 439.422, 334.002 440.850 C 330.493 442.073, 330.133 441.094, 333.102 438.407 C 338.208 433.786, 339.006 427, 334.442 427 C 333.164 427, 331.835 427.457, 331.490 428.016 C 330.049 430.348, 315.015 439.576, 307.066 443.007 C 294.825 448.290, 273 454.965, 273 453.426 C 273 453.207, 275.589 451.722, 278.752 450.125 C 286.323 446.303, 293.985 440.499, 302.142 432.407 C 313.930 420.712, 315.109 414.725, 304.672 419.560 C 298.032 422.637, 290.812 423.460, 283.458 421.978 C 280.181 421.317, 276.195 420.541, 274.601 420.253 L 271.701 419.729 272.377 423.956 C 272.749 426.281, 273.950 429.942, 275.047 432.092 C 277.952 437.786, 276.172 436.947, 266.954 428.275 C 258.796 420.600, 258.747 420.573, 259.453 424.025 C 259.844 425.936, 261.014 429.275, 262.053 431.445 C 264.439 436.428, 264.185 436.620, 259.677 433.245 C 251.556 427.164, 242.301 412.515, 240.506 402.900 C 240.020 400.295, 238.711 398.437, 235.771 396.178 C 233.537 394.461, 229.581 391.041, 226.980 388.578 C 219.486 381.483, 217.938 381.535, 210.843 389.118 C 202.274 398.278, 196 406.851, 196 409.403 C 196 413.601, 190.845 421.920, 183.845 429.018 C 179.978 432.939, 176.559 435.892, 176.247 435.580 C 175.934 435.268, 176.457 434.152, 177.409 433.101 C 179.088 431.245, 182.380 422.047, 181.632 421.299 C 181.428 421.095, 178.923 423.626, 176.066 426.924 C 171.288 432.440, 160.154 441, 157.759 441 C 157.201 441, 158.564 439.026, 160.788 436.614 C 167.285 429.566, 169.697 423.589, 166.536 422.375 C 165.730 422.066, 162.243 422.746, 158.786 423.886 C 144.573 428.572, 131.517 430.122, 125.098 427.884 C 123.338 427.271, 121.645 427.022, 121.335 427.332 C 120.412 428.255, 124.881 433.328, 128.826 435.835 L 132.500 438.170 125.981 437.719 C 121.577 437.414, 117.731 436.391, 114.131 434.566 C 107.819 431.368, 107.042 431.710, 109.842 436.457 C 112.587 441.109, 110.883 441.033, 104.500 436.218 C 91.211 426.191, 87.733 410.003, 94.700 390.601 C 97.511 382.776, 99.253 379.947, 104.489 374.711 C 108.503 370.697, 109.350 366, 106.059 366 C 101.448 366, 103.476 363.913, 110.017 361.926 C 122.526 358.127, 126.117 358.906, 150.524 370.715 C 162.061 376.298, 174.299 382.020, 177.720 383.432 C 190.448 388.687, 199.234 385.992, 210.998 373.224 C 215.365 368.485, 218 366.275, 218 367.352 C 218 373.077, 229.611 385.904, 236.721 388.035 C 243.248 389.990, 265.918 388.790, 274.500 386.034 C 284.022 382.976, 300.024 375.247, 308.438 369.642 C 317.056 363.901, 326.469 361.674, 321.619 366.524 C 318.358 369.785, 320.355 372.384, 330.372 377.914 C 337.523 381.861, 339.628 381.518, 343.474 375.781 C 347.728 369.435, 348.172 360.840, 344.599 354.008 C 339.359 343.987, 337.846 333.332, 340.168 322.799 L 341.336 317.500 342.480 323.500 C 343.590 329.325, 346.084 335.316, 347.856 336.411 C 348.334 336.706, 348.987 334.598, 349.306 331.724 C 349.625 328.851, 352.013 319.300, 354.612 310.500 C 359.324 294.549, 359.338 294.453, 359.419 279 C 359.499 263.769, 359.441 263.338, 356.095 254.159 C 351.955 242.804, 345.226 231.481, 335.498 219.500 C 324.394 205.825, 324.090 205.601, 317.792 206.418 C 297.050 209.111, 250 228.252, 250 233.998 C 250 234.355, 252.391 234.710, 255.313 234.786 C 258.235 234.863, 261.723 235.333, 263.063 235.830 C 265.289 236.656, 265.110 236.800, 261 237.491 C 250.687 239.224, 233.479 246.603, 229.502 250.998 C 226.924 253.847, 226.346 253.635, 219.872 247.459 C 211.169 239.158, 200.470 235, 187.814 235 C 181.954 235, 178.360 236.687, 174.251 241.367 C 171.129 244.923, 167.055 254.337, 166.930 258.288 C 166.891 259.504, 166.489 261.400, 166.037 262.500 L 165.215 264.500 164.357 262.500 C 163.886 261.400, 163.513 256.900, 163.529 252.500 C 163.565 242.553, 166.414 236.417, 174.129 229.669 C 178.584 225.771, 179.151 224.887, 178.046 223.556 C 175.581 220.585, 160.328 221.598, 146.500 225.651 C 144.844 226.137, 144.997 225.709, 147.387 223.171 C 150.618 219.739, 158.675 215.614, 165.510 213.893 C 167.998 213.267, 170.286 212.347, 170.593 211.850 C 171.238 210.806, 155.357 203.100, 146.500 200.159 C 131.150 195.061, 113.359 193.670, 100.155 196.536 M 82.693 226.910 C 69.637 237.286, 61.751 249.153, 58.559 263.228 C 56.466 272.459, 54.795 291.195, 55.960 292.360 C 57.127 293.527, 58.997 289.122, 59.007 285.185 C 59.020 280.169, 62.901 266.262, 66.770 257.365 C 71.765 245.880, 76.323 238.927, 84.977 229.595 C 88.839 225.428, 92 221.790, 92 221.510 C 92 220.066, 89.429 221.558, 82.693 226.910 M 323.667 235.667 C 323.300 236.033, 323 239.225, 323 242.760 C 323 249.467, 320.036 266.082, 317.381 274.254 C 315.151 281.119, 316.195 282.230, 319.529 276.540 C 325.216 266.836, 330.251 243.477, 327.891 237.750 C 326.803 235.110, 325.075 234.258, 323.667 235.667 M 84.317 242.998 C 77.180 248.247, 72 257.389, 72 264.735 C 72 268.508, 73.184 266.955, 78.372 256.372 C 80.833 251.352, 84.278 245.615, 86.027 243.622 C 89.893 239.219, 89.601 239.112, 84.317 242.998 M 107.358 256.500 C 107.814 266.639, 110.331 275.258, 115.098 283.005 C 118.139 287.947, 120 289.312, 120 286.599 C 120 285.828, 117.932 279.866, 115.405 273.349 C 112.878 266.832, 109.943 258.350, 108.882 254.500 L 106.953 247.500 107.358 256.500 M 214.352 276.731 C 212.949 285.343, 213.664 294.119, 216.571 304 C 218.406 310.238, 219.369 315.820, 219.377 320.256 C 219.388 327.332, 219.970 327.764, 221.864 322.101 C 224.043 315.581, 223.274 304.185, 220 294.500 C 217.933 288.384, 217 283.681, 217 279.371 C 217 271.762, 215.418 270.184, 214.352 276.731 M 121.880 317.172 C 118.553 318.059, 111.046 324.379, 112.085 325.418 C 112.331 325.665, 115.676 324.310, 119.517 322.409 C 123.406 320.483, 128.937 318.650, 132 318.271 C 136.880 317.668, 137.162 317.515, 134.500 316.914 C 130.284 315.962, 126.097 316.048, 121.880 317.172 M 265.500 316.699 C 254.565 318.152, 243.919 324.387, 237.513 333.089 C 230.262 342.939, 231.505 343.695, 241.014 335.218 C 251.100 326.226, 255.282 323.231, 262.403 319.899 C 266.031 318.201, 269 316.629, 269 316.406 C 269 316.183, 268.887 316.067, 268.750 316.150 C 268.613 316.232, 267.150 316.479, 265.500 316.699 M 163.093 329.583 C 170.433 333.204, 180.995 338.829, 186.562 342.083 C 197.306 348.362, 199.341 349.054, 198.823 346.250 C 198.021 341.906, 170.716 326.896, 159.161 324.447 C 148.647 322.218, 148.942 322.603, 163.093 329.583 M 274.265 324.474 C 264.657 327.186, 249.833 336.707, 247.012 341.978 C 245.367 345.050, 247.025 344.423, 252.497 339.901 C 262.234 331.855, 273.086 328, 286 328 C 296.402 328, 303.620 330.013, 316.414 336.484 C 327.881 342.284, 330.116 342.795, 325.365 338.531 C 312.185 326.700, 288.986 320.319, 274.265 324.474 M 119.220 349.449 C 112.461 351.085, 111.579 352, 116.761 352 C 126.881 352, 142.447 355.111, 148.822 358.408 C 155.005 361.605, 153.487 358.807, 146.390 353.924 C 138.713 348.642, 129.094 347.058, 119.220 349.449 M 306 351.980 C 300.355 353.181, 296.838 354.884, 291.173 359.160 C 284.771 363.992, 284.954 365.032, 291.586 361.506 C 299.948 357.059, 306.259 355.738, 317.062 356.172 C 327.639 356.596, 328.642 355.993, 321.238 353.660 C 314.727 351.607, 310.132 351.101, 306 351.980 M 228.456 368.954 C 232.421 373.093, 236.966 375, 242.864 375 C 247.485 375, 258.365 371.830, 259.388 370.185 C 259.623 369.808, 254.764 369.638, 248.590 369.807 C 239.136 370.066, 236.542 369.790, 232.146 368.057 C 225.354 365.381, 225.093 365.444, 228.456 368.954 M 82.306 401.500 C 79.121 407.418, 78.182 424.759, 80.954 426.472 C 82.951 427.706, 85.569 408.802, 84.205 403 C 83.452 399.799, 83.290 399.671, 82.306 401.500 M 369.652 422.590 C 369.167 428.324, 369.322 430.581, 370.240 431.148 C 372.108 432.303, 373.259 428.260, 372.633 422.744 C 371.663 414.202, 370.367 414.136, 369.652 422.590 M 68 424.609 C 68 427.968, 68.575 431.404, 69.303 432.400 C 70.409 433.912, 70.545 433.146, 70.198 427.341 C 69.676 418.591, 68 416.508, 68 424.609 M 187.500 433.221 C 183.100 437.057, 176.670 442.059, 173.212 444.335 C 166.214 448.942, 166.537 450.036, 174.158 447.543 C 180.109 445.597, 180.597 445.848, 179.116 450.098 C 177.084 455.927, 177.943 455.433, 183.763 447.427 C 189.247 439.885, 196.585 427.207, 195.846 426.552 C 195.656 426.383, 191.900 429.384, 187.500 433.221 M 246 433.795 C 246 436.047, 256.639 448, 258.644 448 C 261.750 448, 260.396 445.795, 253.471 439.572 C 249.362 435.880, 246 433.280, 246 433.795 M 220.542 452.749 C 220.188 458.112, 219.809 463.400, 219.699 464.500 C 219.554 465.961, 218.750 466.512, 216.715 466.543 C 214.733 466.574, 213.404 467.439, 212.108 469.543 C 211.106 471.169, 209.270 473.400, 208.028 474.500 C 203.381 478.616, 203.407 484.089, 208.079 485.310 C 210.248 485.878, 215 482.263, 215 480.045 C 215 479.470, 215.450 479, 216 479 C 216.550 479, 217 479.643, 217 480.429 C 217 483.006, 220.049 485, 223.990 485 C 228.807 485, 231 484.184, 231 482.393 C 231 480.341, 232.769 480.699, 234 483 C 236.047 486.825, 242 485.222, 242 480.845 C 242 476.709, 237.925 473.187, 232.693 472.803 C 227.981 472.457, 228.587 473.827, 224.906 455.208 C 223.679 448.998, 222.340 443.710, 221.931 443.457 C 221.521 443.204, 220.897 447.386, 220.542 452.749 M 319.250 452.999 C 320.762 453.455, 323.238 453.455, 324.750 452.999 C 326.976 452.330, 326.451 452.172, 322 452.172 C 317.549 452.172, 317.024 452.330, 319.250 452.999 M 118.663 454.977 C 120.229 456.659, 129 457.638, 129 456.130 C 129 455.509, 127.537 454.994, 125.750 454.986 C 123.963 454.979, 121.375 454.693, 120 454.350 C 118.031 453.860, 117.747 453.993, 118.663 454.977 M 92 460.816 C 92 463.300, 104.936 472.730, 106.373 471.293 C 108.012 469.655, 106.593 467.755, 102.385 465.951 C 99.847 464.863, 96.472 463.048, 94.885 461.918 C 93.298 460.788, 92 460.292, 92 460.816 M 255.564 485.685 C 253.948 485.951, 249.223 487.539, 245.064 489.213 C 236.001 492.861, 227.035 493.287, 217 490.546 C 195.633 484.710, 170.193 491.730, 152.297 508.401 C 148.222 512.196, 143.520 517.290, 141.848 519.721 C 137.674 525.787, 137.209 524.440, 140.850 516.828 C 144.018 510.202, 149.907 503.476, 156.250 499.239 C 163.232 494.575, 158.959 492.480, 150.811 496.572 C 132.262 505.887, 116.987 523.163, 109.864 542.881 L 107.112 550.500 107.044 538 C 106.938 518.381, 103.894 510.274, 94.643 504.969 C 88.625 501.517, 87.910 501.425, 85.126 503.750 C 83.396 505.195, 82.870 507.254, 82.109 515.571 C 81.448 522.804, 80.599 526.609, 79.098 529.071 C 77.237 532.123, 77.007 534.060, 77.004 546.685 C 77.002 554.487, 76.517 562.137, 75.926 563.685 C 73.883 569.041, 73.499 597.767, 75.384 604.250 C 76.303 607.413, 77.403 610, 77.828 610 C 78.252 610, 79.147 606.213, 79.816 601.584 C 80.486 596.955, 82.421 587.842, 84.117 581.334 C 89.633 560.173, 90.250 556.646, 90.288 546.089 L 90.326 535.678 92.629 538.355 C 99.688 546.562, 99.600 564.742, 92.387 588.120 C 88.900 599.420, 87.790 624.005, 90.405 631.999 C 93.145 640.376, 96.623 647.268, 101.354 653.695 C 106.726 660.992, 109.493 663.162, 122.500 670.276 C 128 673.285, 133.933 676.582, 135.685 677.604 C 140.216 680.247, 140.679 678.909, 137.704 671.762 C 132.745 659.842, 131.534 654.132, 131.609 643 C 131.647 637.225, 132.150 631.375, 132.727 630 C 133.742 627.578, 133.796 627.624, 134.475 631.500 C 138.518 654.598, 149.973 678.833, 162.682 691.181 C 166.550 694.939, 169.571 696.643, 178 699.817 C 183.775 701.992, 191.873 705.404, 195.996 707.398 C 200.519 709.585, 203.636 710.591, 203.856 709.933 C 204.056 709.333, 203.408 706.065, 202.417 702.671 C 200.389 695.726, 199.793 672.349, 201.418 663.500 L 202.337 658.500 203.649 668.500 C 207.513 697.950, 219.968 713.017, 240.432 712.994 C 249.029 712.985, 252.643 711.395, 259.341 704.678 C 268.438 695.553, 274.694 681.785, 275.125 669.936 C 275.241 666.746, 275.306 666.822, 276.030 671 C 276.459 673.475, 276.588 677.975, 276.317 681 C 275.951 685.097, 276.232 687.010, 277.418 688.500 C 278.979 690.460, 279.083 690.419, 282.556 686.500 C 294.892 672.580, 303.996 647.231, 305.722 622 L 306.372 612.500 307.616 616.729 C 309.711 623.846, 311.227 640.060, 310.538 647.986 C 309.695 657.690, 307.646 664.855, 303.324 673.207 C 299.567 680.466, 299.531 684, 303.212 684 C 308.918 684, 330.695 670.411, 338.658 661.882 C 347.256 652.672, 358 622.873, 358 608.235 C 358 601.086, 359.915 604.374, 360.908 613.228 C 361.375 617.391, 362.063 621.293, 362.437 621.899 C 363.813 624.125, 366.598 623.002, 367.763 619.750 C 374.094 602.076, 373.415 575.176, 365.989 549.500 C 362.941 538.962, 362.546 530.210, 364.501 516.500 C 367.181 497.707, 367.513 491, 365.763 491 C 362.590 491, 356.178 496.937, 353.550 502.308 L 350.882 507.762 352.941 518.432 C 356.243 535.543, 355.360 557.760, 350.751 573.500 C 349.634 577.315, 349.550 576.991, 348.925 566.500 C 346.904 532.532, 338.436 511.258, 322.030 498.930 C 314.315 493.133, 313.546 493.736, 317.565 502.434 C 319.454 506.523, 321 510.165, 321 510.527 C 321 510.889, 318.747 509.160, 315.994 506.684 C 308.788 500.206, 293.986 490.528, 287.270 487.905 C 281.513 485.656, 263.428 484.390, 255.564 485.685 M 251.624 501.105 C 254.985 503.594, 259 508.878, 259 510.812 C 259 511.664, 255.541 512.001, 246.750 512.005 C 227.401 512.012, 192.262 516.892, 184.546 520.643 C 183.971 520.923, 185.894 518.867, 188.820 516.076 C 195.125 510.060, 193.742 509.468, 184.071 514.043 C 156.462 527.104, 136.833 551.066, 130.532 579.400 C 129.917 582.162, 130.116 582.066, 134.693 577.400 L 139.500 572.500 139.752 577 C 141.156 602.009, 144.460 618.813, 149.020 624.136 L 151.045 626.500 150.515 623 C 148.368 608.839, 147.235 573.591, 148.894 572.566 C 149.385 572.262, 151.747 572.724, 154.144 573.592 C 156.540 574.459, 162.550 576.226, 167.500 577.517 C 172.450 578.808, 176.385 580.233, 176.245 580.682 C 176.106 581.132, 174.808 584.875, 173.361 589 C 171.231 595.076, 170.717 598.399, 170.657 606.500 C 170.590 615.538, 172.437 627, 173.961 627 C 174.282 627, 175.107 623.962, 175.794 620.250 C 178.942 603.260, 185.036 589.897, 191.670 585.438 C 203.326 577.603, 226.069 582.115, 228.955 592.835 C 231.581 602.585, 233.221 619.380, 233.292 637.234 C 233.333 647.537, 233.467 655.862, 233.592 655.734 C 233.716 655.605, 234.969 651.900, 236.376 647.500 C 242.002 629.910, 244.184 615.122, 244.397 593.147 C 244.524 580.044, 244.592 579.989, 260.778 579.844 C 277.622 579.693, 280.466 581.966, 284.121 598.500 C 285.863 606.380, 285.630 628.389, 283.702 638 C 282.875 642.125, 282.374 645.684, 282.590 645.908 C 283.446 646.798, 289.381 631.977, 291.758 623.011 C 294.877 611.247, 295.382 589.602, 292.777 579.325 C 291.082 572.635, 291.056 572.702, 297 568.292 C 299.880 566.155, 305.558 565.700, 307.323 567.466 C 309.466 569.609, 316.897 592.879, 321.065 610.500 C 324.942 626.895, 325.751 626.309, 325.892 607 C 326.167 569.449, 315.985 540.992, 295.587 522.300 C 287.083 514.508, 263.135 502.107, 251.500 499.471 L 248.500 498.791 251.624 501.105 M 268 515.897 C 267.175 516.357, 259.300 517.024, 250.500 517.379 C 214.174 518.844, 185.157 524.915, 170.972 534.018 C 163.841 538.594, 158.280 545.281, 153.939 554.500 C 148.340 566.393, 148.204 565.832, 157.500 569.227 C 170.979 574.150, 184.857 577.382, 187.344 576.178 C 189.050 575.353, 189.144 575.121, 187.797 575.068 C 183.766 574.907, 180.978 572.635, 179.848 568.587 L 178.708 564.500 177.825 567.750 C 177.006 570.768, 176.640 571, 172.694 571 C 170.307 571, 167.377 570.252, 166.009 569.294 C 164.587 568.297, 162.183 567.707, 160.234 567.875 C 156.492 568.197, 152 565.763, 152 563.412 C 152 560.649, 156.212 552, 157.558 552 C 161.748 552, 164.001 553.977, 164.082 557.725 L 164.163 561.500 165.597 558.219 C 166.385 556.415, 168.071 554.543, 169.342 554.060 C 172.764 552.759, 178.322 554.188, 178.963 556.533 C 179.442 558.289, 180.396 558.500, 187.840 558.500 C 198.401 558.500, 200.473 560.279, 199.772 568.739 C 199.388 573.365, 199.561 574, 201.203 574 C 202.739 574, 202.887 573.657, 202.035 572.066 C 201.466 571.002, 201 568.128, 201 565.679 C 201 561.459, 201.170 561.192, 204.250 560.561 C 209.211 559.545, 217.370 559.985, 218.216 561.314 C 219.375 563.139, 219.138 572.462, 217.900 573.700 C 217.100 574.500, 218.259 575.238, 222.150 576.407 C 228.014 578.169, 229.491 579.131, 232.681 583.267 L 234.815 586.035 236.839 582.767 C 239.855 577.897, 243.487 576.288, 254.520 574.935 C 269.542 573.092, 274.859 574.443, 281.750 581.854 L 286.999 587.500 287 578.424 C 287 568.575, 287.291 567.989, 294.367 563.585 L 297.234 561.801 294.867 560.626 C 292.888 559.644, 292.450 558.569, 292.192 554.070 C 291.848 548.053, 292.638 547.040, 297.693 547.015 C 302.707 546.991, 305.695 552.958, 303.101 557.816 C 302.313 559.292, 302.869 559.516, 307.601 559.630 C 314.247 559.790, 314.341 559.242, 309.439 549.014 C 302.686 534.922, 292.738 523.378, 282.340 517.566 C 277.696 514.971, 271.049 514.197, 268 515.897 M 229.966 522.564 C 229.198 523.999, 226.866 526.522, 224.785 528.170 L 221 531.168 221 541.279 C 221 550.890, 221.133 551.529, 223.687 554.195 C 226.108 556.722, 227.039 557, 233.076 557 C 243.346 557, 244.505 555.662, 244.480 543.836 C 244.451 529.684, 243.904 528.069, 237.757 523.983 C 234.875 522.067, 232.257 520.377, 231.940 520.227 C 231.622 520.077, 230.734 521.128, 229.966 522.564 M 248 521.979 C 245.509 523.554, 245.839 549.060, 248.387 551.875 C 250.784 554.523, 256.227 555.572, 259.767 554.067 C 264.799 551.927, 266.449 548.386, 267.019 538.500 L 267.538 529.500 268.384 538.500 C 269.344 548.717, 270.659 551, 275.584 551 C 280.440 551, 282.307 548.619, 281.589 543.339 C 281.265 540.953, 280.723 536.970, 280.385 534.488 C 279.643 529.049, 277.302 525.846, 272.351 523.496 C 269.682 522.230, 268.194 522.022, 267.024 522.753 C 265.870 523.474, 264.855 523.367, 263.509 522.383 C 261.344 520.800, 250.320 520.512, 248 521.979 M 204.803 527.488 C 200.831 530.187, 200.625 530.616, 199.056 539.434 C 197.463 548.386, 197.727 552.383, 200.112 555.415 C 202.153 558.010, 202.461 558.078, 209.362 557.454 C 219.483 556.539, 220 555.762, 220 541.461 C 220 529.313, 219.477 527.892, 214.280 525.916 C 210.554 524.500, 208.764 524.796, 204.803 527.488 M 317.584 533.230 C 326.566 559.576, 331.361 589.858, 331.439 620.730 L 331.493 641.959 333.203 636.928 C 335.884 629.040, 338.740 614.560, 340.097 601.979 C 343.013 574.940, 336.456 549.241, 322.458 532.842 C 315.527 524.723, 314.706 524.788, 317.584 533.230 M 282.338 529.561 C 282.009 530.420, 282.027 533.682, 282.378 536.811 C 283.335 545.331, 288.427 549.191, 293.770 545.449 C 299.524 541.418, 298.836 538.432, 290.709 532.161 C 284.864 527.652, 283.262 527.154, 282.338 529.561 M 184.331 532.578 C 181.899 535.010, 181.778 535.607, 182.207 543.023 C 182.458 547.349, 183.244 551.589, 183.954 552.444 C 185.680 554.525, 193.343 554.514, 195.429 552.429 C 197.405 550.453, 197.708 533.108, 195.800 531.200 C 193.583 528.983, 187.154 529.755, 184.331 532.578 M 177.400 535.162 C 176.969 535.858, 176.067 538.695, 175.394 541.464 C 174.176 546.476, 174.170 546.482, 174.085 542.719 C 174.033 540.389, 173.440 538.722, 172.541 538.377 C 170.958 537.770, 162.445 543.399, 161.594 545.615 C 160.836 547.591, 165.084 551.863, 168 552.056 C 173.305 552.407, 174 552.082, 174.011 549.250 L 174.022 546.500 176.584 549.750 C 180.515 554.738, 181.104 553.909, 180.788 543.831 C 180.511 535.011, 179.342 532.020, 177.400 535.162 M 281.246 552.154 C 280.476 552.924, 280 556.229, 280 560.808 L 280 568.217 282.750 567.563 C 288.730 566.142, 290.500 563.819, 290.500 557.392 L 290.500 551.500 286.496 551.204 C 284.247 551.039, 281.945 551.455, 281.246 552.154 M 266.500 554.549 C 262.156 556.775, 261 558.787, 261 564.119 C 261 570.486, 263.997 573, 271.588 573 C 276.881 573, 276.911 572.983, 277.947 569.250 C 279.658 563.092, 279.230 559.427, 276.411 556.077 C 273.531 552.654, 270.969 552.260, 266.500 554.549 M 243.383 558.445 C 242.940 559.599, 240.672 559.851, 232.164 559.695 L 221.500 559.500 221.212 565.500 L 220.923 571.500 226.368 574.750 C 235.025 579.918, 242 578.492, 242 571.555 C 242 569.650, 242.074 569.661, 243.557 571.777 C 245.519 574.578, 249.930 574.669, 255.750 572.027 C 259.980 570.107, 260 570.072, 260 564.749 C 260 561.807, 259.460 558.860, 258.800 558.200 C 256.998 556.398, 244.089 556.603, 243.383 558.445 M 109.132 589.609 C 108.476 591.049, 107.218 596.500, 106.335 601.723 C 104.851 610.505, 104.856 611.859, 106.397 619.702 C 107.756 626.616, 113.009 640, 114.364 640 C 114.549 640, 113.624 636.288, 112.308 631.750 C 109.293 621.348, 108.392 608.093, 109.922 596.636 C 111.194 587.105, 111.012 585.484, 109.132 589.609 M 262.792 607.749 C 263.422 616.534, 261.375 634.370, 258.486 645.271 C 254.549 660.125, 254.559 659.924, 258.035 654.563 C 266.634 641.301, 269.216 618.040, 263.590 604.500 C 262.450 601.756, 262.382 602.033, 262.792 607.749 M 186.647 618.261 C 181.088 627.614, 179.483 633.821, 179.603 645.500 C 179.715 656.377, 181.214 661.665, 187.072 671.843 C 190.674 678.101, 191.673 678.128, 189.440 671.906 C 183.674 655.844, 183.674 633.156, 189.440 617.094 C 191.706 610.782, 190.889 611.123, 186.647 618.261"  fill="currentColor" fill-rule="evenodd"/>
</svg>