<?xml version="1.0" encoding="UTF-8" standalone="no"?>
<svg
     viewBox="0 0 512 512"
     version="1.1"
     id="svg2"
     xmlns="http://www.w3.org/2000/svg"
     xmlns:svg="http://www.w3.org/2000/svg">
    <defs
         id="defs2" />
    <rect
         x="28"
         y="28"
         width="456"
         height="456"
         rx="84"
         fill="#9c3b2c"
         id="rect1" />
    <rect
         x="64"
         y="64"
         width="384"
         height="384"
         rx="56"
         fill="none"
         stroke="#f4ecdd"
         stroke-width="11"
         opacity="0.5"
         id="rect2" />
    <path
         d="M 266.92,197.42 C 285.95,244.53 326.2,277.29 377.37,296.63 C 379.55,282.59 389.54,266.37 405.45,261.38 V 256.7 C 357.4,247.96 299.99,228.93 271.91,193.98 C 282.21,193.05 285.95,190.86 286.89,186.81 L 231.35,173.39 C 218.87,216.14 163.34,274.17 106.24,303.18 L 107.8,306.62 C 175.5,286.96 238.22,242.66 266.92,197.42 Z M 289.7,316.6 L 287.2,319.1 C 307.79,336.26 332.75,363.4 343.36,387.74 C 381.74,407.7 401.08,331.89 289.7,316.6 Z M 229.48,331.26 L 187.36,309.74 C 177.06,336.57 153.35,371.82 125.58,393.35 L 128.08,397.1 C 166.14,383.68 198.59,359.03 217.62,335.32 C 225.11,336.57 227.92,334.7 229.48,331.26 Z M 184.86,156.23 H 113.1 L 115.29,165.28 H 184.86 V 199.6 H 190.79 C 206.7,199.6 220.74,194.3 220.74,191.49 V 165.28 H 290.01 V 197.73 H 295.94 C 313.1,197.73 326.51,193.05 326.51,189.93 V 165.28 H 392.34 C 396.71,165.28 400.14,163.72 400.77,160.29 C 388.91,148.43 367.07,130.96 367.07,130.96 L 348.66,156.23 H 326.51 V 129.4 C 334.62,128.15 337.12,125.03 337.43,120.98 L 290.01,116.92 V 156.23 H 220.74 V 129.4 C 228.86,128.15 231.04,125.03 231.66,120.98 L 184.86,116.92 Z M 310.29,266.06 L 291.88,289.46 H 276.28 V 260.44 C 282.83,259.5 285.33,257.32 285.95,252.95 L 239.78,248.9 V 289.46 H 164.9 L 167.39,298.5 H 239.78 V 365.9 C 239.78,369.33 238.22,370.89 233.54,370.89 C 227.61,370.89 198.59,368.7 198.59,368.7 V 373.07 C 213.26,375.26 219.18,379.31 223.55,384.3 C 227.92,389.61 229.48,397.72 230.1,408.64 C 270.66,405.21 276.28,392.1 276.28,367.14 V 298.5 H 334.62 C 338.99,298.5 342.11,296.94 343.05,293.51 C 330.57,281.97 310.29,266.06 310.29,266.06 Z"
         id="text2"
         style="font-weight:700;font-size:312px;font-family:'Noto Serif CJK SC';dominant-baseline:central;text-anchor:middle;fill:#f4ecdd"
         aria-label="茶" />
</svg>
