<?xml version="1.0" encoding="UTF-8" standalone="no"?>
<svg
     viewBox="0 0 580 150"
     width="580"
     height="150"
     role="img"
     aria-label="Sabrina Coiffure"
     version="1.1"
     id="svg3"
     xmlns="http://www.w3.org/2000/svg"
     xmlns:svg="http://www.w3.org/2000/svg">
    <defs
         id="defs3" />
    <title
         id="title1">Sabrina Coiffure</title>
    <g
         transform="translate(8,25)"
         id="g2">
        <rect
             width="100"
             height="100"
             rx="24"
             fill="#5E7358"
             id="rect1" />
        <circle
             cx="50"
             cy="50"
             r="37"
             fill="none"
             stroke="#FAF5EE"
             stroke-opacity="0.4"
             stroke-width="1.6"
             id="circle1" />
        <path
             d="M64 33 C47 28 37 44 50 53 C64 62 57 75 41 71"
             fill="none"
             stroke="#FAF5EE"
             stroke-width="8.5"
             stroke-linecap="round"
             stroke-linejoin="round"
             id="path1" />
        <circle
             cx="64"
             cy="33"
             r="4.6"
             fill="#B5664F"
             id="circle2" />
    </g>
    <path
         d="M 160,39.136 L 155.36,37.888 L 159.26,35.264 H 159.81 L 161.79,49.376 L 160.38,49.632 L 154.85,39.744 L 155.97,41.216 Q 154.3,40.032 152.58,39.552 Q 150.88,39.04 148.86,39.04 Q 144.74,39.04 142.46,40.992 Q 140.19,42.944 140.19,46.176 Q 140.19,48.32 141.06,49.792 Q 141.95,51.264 143.49,52.288 Q 145.02,53.312 146.98,54.08 Q 148.93,54.848 151.07,55.616 Q 153.22,56.384 155.33,57.312 Q 157.44,58.208 159.17,59.552 Q 160.93,60.864 161.98,62.88 Q 163.04,64.896 163.04,67.84 Q 163.04,71.968 161.09,74.816 Q 159.17,77.664 155.74,79.168 Q 152.35,80.64 147.87,80.64 Q 144.8,80.64 142.4,80.192 Q 140,79.776 137.41,78.72 L 134.62,67.648 H 136.48 L 144.03,78.688 L 138.72,75.328 Q 141.22,76.672 143.17,77.312 Q 145.15,77.92 147.39,77.92 Q 150.91,77.92 153.41,77.024 Q 155.94,76.096 157.28,74.24 Q 158.62,72.384 158.62,69.568 Q 158.62,67.104 157.5,65.472 Q 156.42,63.84 154.59,62.784 Q 152.77,61.696 150.59,60.928 Q 148.45,60.128 146.34,59.328 Q 144.22,58.528 142.37,57.6 Q 140.54,56.64 139.14,55.36 Q 137.76,54.08 136.96,52.288 Q 136.19,50.464 136.19,47.936 Q 136.19,44.416 137.82,41.856 Q 139.49,39.296 142.53,37.888 Q 145.6,36.48 149.76,36.48 Q 152.61,36.48 155.04,37.12 Q 157.5,37.76 160,39.136 Z M 185.06,62.624 L 185.57,64.864 Q 181.79,65.728 179.39,66.624 Q 176.99,67.488 175.65,68.416 Q 174.3,69.344 173.76,70.4 Q 173.25,71.424 173.25,72.672 Q 173.25,74.848 174.53,76 Q 175.84,77.152 177.7,77.152 Q 179.2,77.152 180.45,76.384 Q 181.7,75.616 182.43,74.368 Q 183.2,73.12 183.2,71.68 V 60.16 Q 183.2,57.856 182.02,56.48 Q 180.83,55.104 178.11,55.104 Q 177.15,55.104 175.9,55.424 Q 174.66,55.712 173.47,56.32 L 175.1,54.848 Q 175.01,55.744 174.82,56.64 Q 174.66,57.536 174.4,58.24 Q 174.18,58.944 173.82,59.328 Q 173.31,59.872 172.54,60.128 Q 171.78,60.384 171.01,60.384 Q 170.02,60.384 169.44,59.936 Q 168.86,59.456 168.86,58.752 Q 168.86,57.76 169.82,56.672 Q 170.82,55.552 172.42,54.592 Q 174.05,53.6 176.03,52.992 Q 178.02,52.384 180.06,52.384 Q 182.85,52.384 184.58,53.248 Q 186.3,54.08 187.07,55.744 Q 187.87,57.376 187.87,59.776 V 74.4 Q 187.87,75.392 188.16,76.064 Q 188.45,76.704 188.99,77.056 Q 189.57,77.376 190.4,77.376 Q 191.14,77.376 191.97,77.088 Q 192.83,76.8 193.63,76.32 V 77.792 Q 192.32,79.232 190.85,79.904 Q 189.41,80.576 188.16,80.576 Q 186.62,80.576 185.5,79.904 Q 184.42,79.2 183.84,77.92 Q 183.26,76.608 183.26,74.848 L 183.46,74.528 Q 183.04,76.32 181.89,77.696 Q 180.77,79.072 179.17,79.872 Q 177.6,80.64 175.81,80.64 Q 172.61,80.64 170.53,78.848 Q 168.45,77.056 168.45,73.696 Q 168.45,71.904 169.15,70.432 Q 169.89,68.96 171.71,67.68 Q 173.54,66.368 176.77,65.152 Q 180.03,63.904 185.06,62.624 Z M 200.06,78.176 H 203.42 L 198.4,80.512 L 197.38,80.128 L 198.08,73.44 V 41.024 Q 197.66,40.512 196.99,40 Q 196.32,39.488 195.36,38.976 Q 194.4,38.432 193.15,37.92 V 37.28 L 202.43,34.592 H 203.07 L 202.75,39.712 V 71.808 Q 202.75,73.536 203.68,74.944 Q 204.61,76.352 206.34,77.184 Q 208.1,77.984 210.5,77.984 Q 213.22,77.984 215.1,76.576 Q 217.02,75.168 218.05,72.576 Q 219.07,69.984 219.07,66.496 Q 219.07,62.976 217.92,60.544 Q 216.8,58.08 214.78,56.832 Q 212.77,55.552 210.11,55.552 Q 208.22,55.552 206.53,55.872 Q 204.83,56.192 203.36,56.832 Q 201.92,57.472 200.67,58.464 V 56.192 Q 202.4,55.136 203.97,54.368 Q 205.54,53.6 206.94,53.12 Q 208.35,52.608 209.66,52.352 Q 210.98,52.096 212.16,52.096 Q 216.19,52.096 218.91,53.728 Q 221.66,55.36 223.07,58.272 Q 224.48,61.152 224.48,64.96 Q 224.48,68.48 223.33,71.36 Q 222.21,74.24 220.13,76.32 Q 218.05,78.4 215.23,79.52 Q 212.45,80.64 209.12,80.64 Q 207.78,80.64 206.37,80.384 Q 204.96,80.128 203.39,79.616 Q 201.86,79.072 200.06,78.176 Z M 247.33,52.32 Q 248.96,52.32 249.7,53.088 Q 250.43,53.856 250.43,55.104 Q 250.43,56.544 249.5,57.44 Q 248.58,58.304 246.94,58.304 Q 246.24,58.304 245.54,58.048 Q 244.83,57.76 244.03,57.504 Q 243.26,57.248 242.34,57.248 Q 241.6,57.248 240.7,57.472 Q 239.81,57.664 238.94,58.048 Q 238.08,58.432 237.44,58.944 L 236.74,57.824 Q 238.62,56.416 240.19,55.392 Q 241.79,54.368 243.1,53.696 Q 244.42,52.992 245.47,52.672 Q 246.53,52.32 247.33,52.32 Z M 238.05,57.952 V 77.28 L 243.01,78.816 V 80 H 228.51 V 78.816 L 233.38,77.28 V 58.432 Q 232.96,57.984 232.29,57.632 Q 231.65,57.28 230.72,56.928 Q 229.82,56.544 228.64,56.16 V 55.36 L 237.06,52.096 H 237.73 Z M 259.62,42.208 Q 257.92,42.208 256.83,41.12 Q 255.78,40 255.78,38.4 Q 255.78,36.8 256.83,35.712 Q 257.92,34.592 259.62,34.592 Q 261.31,34.592 262.37,35.712 Q 263.46,36.8 263.46,38.4 Q 263.46,40 262.37,41.12 Q 261.31,42.208 259.62,42.208 Z M 262.46,52.096 L 262.27,57.28 V 77.28 L 267.23,78.816 V 80 H 252.74 V 78.816 L 257.6,77.28 V 58.048 Q 257.25,57.664 256.48,57.216 Q 255.74,56.736 254.78,56.288 Q 253.86,55.84 252.86,55.552 V 54.56 L 261.89,52.096 Z M 279.3,57.952 V 77.28 L 284.26,78.816 V 80 H 269.76 V 78.816 L 274.62,77.28 V 58.432 Q 274.11,57.888 273.09,57.376 Q 272.06,56.864 269.89,56.16 V 55.36 L 277.66,52.096 H 278.34 Z M 288.13,78.816 L 293.09,77.28 V 62.144 Q 293.09,60.416 292.35,59.168 Q 291.62,57.888 290.18,57.216 Q 288.74,56.512 286.66,56.512 Q 284.13,56.512 281.95,57.472 Q 279.81,58.4 278.98,59.712 L 277.73,58.688 Q 279.42,56.864 280.93,55.616 Q 282.46,54.336 283.9,53.568 Q 285.38,52.8 286.91,52.448 Q 288.45,52.096 290.14,52.096 Q 294.02,52.096 295.87,54.592 Q 297.76,57.056 297.76,62.432 V 77.28 L 302.69,78.816 V 80 H 288.13 Z M 322.46,62.624 L 322.98,64.864 Q 319.2,65.728 316.8,66.624 Q 314.4,67.488 313.06,68.416 Q 311.71,69.344 311.17,70.4 Q 310.66,71.424 310.66,72.672 Q 310.66,74.848 311.94,76 Q 313.25,77.152 315.1,77.152 Q 316.61,77.152 317.86,76.384 Q 319.1,75.616 319.84,74.368 Q 320.61,73.12 320.61,71.68 V 60.16 Q 320.61,57.856 319.42,56.48 Q 318.24,55.104 315.52,55.104 Q 314.56,55.104 313.31,55.424 Q 312.06,55.712 310.88,56.32 L 312.51,54.848 Q 312.42,55.744 312.22,56.64 Q 312.06,57.536 311.81,58.24 Q 311.58,58.944 311.23,59.328 Q 310.72,59.872 309.95,60.128 Q 309.18,60.384 308.42,60.384 Q 307.42,60.384 306.85,59.936 Q 306.27,59.456 306.27,58.752 Q 306.27,57.76 307.23,56.672 Q 308.22,55.552 309.82,54.592 Q 311.46,53.6 313.44,52.992 Q 315.42,52.384 317.47,52.384 Q 320.26,52.384 321.98,53.248 Q 323.71,54.08 324.48,55.744 Q 325.28,57.376 325.28,59.776 V 74.4 Q 325.28,75.392 325.57,76.064 Q 325.86,76.704 326.4,77.056 Q 326.98,77.376 327.81,77.376 Q 328.54,77.376 329.38,77.088 Q 330.24,76.8 331.04,76.32 V 77.792 Q 329.73,79.232 328.26,79.904 Q 326.82,80.576 325.57,80.576 Q 324.03,80.576 322.91,79.904 Q 321.82,79.2 321.25,77.92 Q 320.67,76.608 320.67,74.848 L 320.86,74.528 Q 320.45,76.32 319.3,77.696 Q 318.18,79.072 316.58,79.872 Q 315.01,80.64 313.22,80.64 Q 310.02,80.64 307.94,78.848 Q 305.86,77.056 305.86,73.696 Q 305.86,71.904 306.56,70.432 Q 307.3,68.96 309.12,67.68 Q 310.94,66.368 314.18,65.152 Q 317.44,63.904 322.46,62.624 Z"
         id="text2"
         style="font-weight:600;font-size:64px;font-family:Newsreader;fill:#2b2622"
         aria-label="Sabrina" />
    <path
         d="M 143.88,116.28 Q 141.56,116.28 139.74,115.22 Q 137.94,114.14 136.91,112.27 Q 135.9,110.39 135.9,107.95 Q 135.9,105.51 136.91,103.65 Q 137.94,101.76 139.74,100.7 Q 141.53,99.624 143.85,99.624 Q 145.42,99.624 146.8,100.2 Q 148.18,100.75 149.24,101.74 Q 150.32,102.73 150.89,104.04 L 148.45,105.03 Q 148.04,104.15 147.33,103.49 Q 146.64,102.8 145.74,102.43 Q 144.84,102.06 143.85,102.06 Q 142.34,102.06 141.14,102.82 Q 139.97,103.58 139.28,104.91 Q 138.61,106.22 138.61,107.95 Q 138.61,109.67 139.28,111.01 Q 139.97,112.34 141.16,113.1 Q 142.38,113.86 143.92,113.86 Q 144.94,113.86 145.81,113.47 Q 146.71,113.06 147.4,112.34 Q 148.11,111.63 148.52,110.69 L 150.96,111.68 Q 150.39,113.03 149.33,114.09 Q 148.27,115.13 146.87,115.7 Q 145.46,116.28 143.88,116.28 Z M 167.69,116.28 Q 165.3,116.28 163.46,115.22 Q 161.62,114.16 160.56,112.27 Q 159.53,110.39 159.53,107.95 Q 159.53,105.51 160.56,103.65 Q 161.62,101.76 163.44,100.7 Q 165.25,99.624 167.62,99.624 Q 170.01,99.624 171.83,100.7 Q 173.67,101.76 174.68,103.65 Q 175.72,105.51 175.72,107.95 Q 175.72,110.39 174.68,112.27 Q 173.67,114.16 171.85,115.22 Q 170.06,116.28 167.69,116.28 Z M 167.69,113.84 Q 169.25,113.84 170.45,113.08 Q 171.65,112.32 172.31,111.01 Q 173,109.67 173,107.95 Q 173,106.25 172.31,104.91 Q 171.62,103.58 170.4,102.84 Q 169.21,102.09 167.62,102.09 Q 166.06,102.09 164.84,102.84 Q 163.64,103.58 162.93,104.91 Q 162.24,106.22 162.24,107.95 Q 162.24,109.67 162.93,111.01 Q 163.64,112.32 164.86,113.08 Q 166.1,113.84 167.69,113.84 Z M 185.55,116 V 99.9 H 188.21 V 116 Z M 199.03,116 V 99.9 H 209.04 V 102.34 H 201.7 V 106.85 H 207.98 V 109.28 H 201.7 V 116 Z M 218.68,116 V 99.9 H 228.69 V 102.34 H 221.35 V 106.85 H 227.63 V 109.28 H 221.35 V 116 Z M 244.47,116.32 Q 242.56,116.32 241.12,115.56 Q 239.69,114.78 238.88,113.38 Q 238.1,111.97 238.1,110.11 V 99.9 H 240.77 V 110.11 Q 240.77,111.24 241.23,112.09 Q 241.71,112.92 242.56,113.4 Q 243.42,113.86 244.52,113.86 Q 245.65,113.86 246.5,113.4 Q 247.37,112.92 247.83,112.09 Q 248.29,111.24 248.29,110.11 V 99.9 H 250.96 V 110.11 Q 250.96,111.97 250.15,113.38 Q 249.37,114.78 247.9,115.56 Q 246.45,116.32 244.47,116.32 Z M 261.55,116 V 99.9 H 267.23 Q 268.88,99.9 270.15,100.54 Q 271.41,101.19 272.13,102.34 Q 272.84,103.46 272.84,104.96 Q 272.84,106.55 271.97,107.77 Q 271.09,108.96 269.67,109.54 L 273.48,116 H 270.47 L 267.02,110.04 Q 266.88,110.07 266.72,110.07 Q 266.58,110.07 266.42,110.07 H 264.22 V 116 Z M 264.22,107.6 H 267.34 Q 268.13,107.6 268.72,107.26 Q 269.34,106.91 269.71,106.32 Q 270.1,105.72 270.1,104.96 Q 270.1,103.81 269.28,103.07 Q 268.45,102.34 267.14,102.34 H 264.22 Z M 283.2,116 V 99.9 H 293.11 V 102.34 H 285.87 V 106.62 H 292.26 V 109.01 H 285.87 V 113.56 H 293.18 V 116 Z"
         id="text3"
         style="font-weight:600;font-size:23px;font-family:Figtree;letter-spacing:7;fill:#5e7358"
         aria-label="COIFFURE" />
</svg>
