<svg xmlns="http://www.w3.org/2000/svg" viewBox="0 0 512 512" width="512" height="512">
  <rect width="512" height="512" rx="116" fill="#db0a14"/>
  <rect x="10" y="10" width="492" height="492" rx="108" fill="none" stroke="#a8060d" stroke-width="10"/>
  <g transform="translate(106,86) scale(2.5)">
    <!-- face (cream silhouette) -->
    <path d="M60 6 C90 6 107 28 107 60 C107 93 88 121 60 135 C32 121 13 93 13 60 C13 28 30 6 60 6 Z" fill="#f4ead0"/>
    <!-- features cut in tile-red -->
    <path d="M27 49 Q40 38 54 47" fill="none" stroke="#db0a14" stroke-width="6" stroke-linecap="round"/>
    <path d="M93 49 Q80 38 66 47" fill="none" stroke="#db0a14" stroke-width="6" stroke-linecap="round"/>
    <ellipse cx="41" cy="60" rx="8.5" ry="6" fill="#db0a14"/>
    <ellipse cx="79" cy="60" rx="8.5" ry="6" fill="#db0a14"/>
    <path d="M60 62 C55 74 55 85 60 93 C65 85 65 74 60 62 Z" fill="#db0a14"/>
    <path d="M60 93 C52 98 43 100 35 97 C28 95 24 91 22 84 C29 91 34 92 41 91 C49 90 55 95 60 101 C65 95 71 90 79 91 C86 92 91 91 98 84 C96 91 92 95 85 97 C77 100 68 98 60 93 Z" fill="#db0a14"/>
    <path d="M60 105 C53 108 53 119 60 125 C67 119 67 108 60 105 Z" fill="#db0a14"/>
  </g>
</svg>
