<svg xmlns="http://www.w3.org/2000/svg" viewBox="0 0 512 512" width="512" height="512" role="img" aria-label="Dubois — Boulangerie · Confiserie, Genève">
  <title>Dubois — Boulangerie · Confiserie, Genève (generated placeholder)</title>
  <!-- GENERATED PLACEHOLDER logo. Not an official mark. Palette derived from the venue's
       storefront/interior photography (terracotta #B5613F, sage #4F7A68, cream, espresso). -->
  <rect width="512" height="512" rx="40" fill="#F7F1E8"/>
  <rect x="22" y="22" width="468" height="468" rx="28" fill="none" stroke="#E7DCCD" stroke-width="2"/>

  <!-- minimal wheat sprig emblem -->
  <g transform="translate(256,150)" stroke="#B5613F" stroke-width="5.5" stroke-linecap="round" fill="none">
    <line x1="0" y1="-46" x2="0" y2="34"/>
    <path d="M0,-30 C-16,-34 -24,-24 -22,-12"/>
    <path d="M0,-30 C16,-34 24,-24 22,-12"/>
    <path d="M0,-14 C-18,-18 -26,-8 -24,4"/>
    <path d="M0,-14 C18,-18 26,-8 24,4"/>
    <path d="M0,2 C-18,-2 -26,8 -24,20"/>
    <path d="M0,2 C18,-2 26,8 24,20"/>
  </g>

  <text x="256" y="288" text-anchor="middle" font-family="Georgia, 'Hoefler Text', 'Times New Roman', serif" font-size="108" fill="#2E2620">Dubois</text>

  <g stroke="#B5613F" stroke-width="2.5" stroke-linecap="round">
    <line x1="116" y1="332" x2="226" y2="332"/>
    <line x1="286" y1="332" x2="396" y2="332"/>
  </g>
  <rect x="248" y="324" width="16" height="16" rx="2" transform="rotate(45 256 332)" fill="#4F7A68"/>

  <text x="256" y="378" text-anchor="middle" font-family="'Helvetica Neue', Arial, sans-serif" font-size="22" letter-spacing="5" fill="#B5613F">BOULANGERIE · CONFISERIE</text>
  <text x="256" y="416" text-anchor="middle" font-family="'Helvetica Neue', Arial, sans-serif" font-size="17" letter-spacing="9" fill="#8C7B6B">GENÈVE</text>
</svg>
