<svg xmlns="http://www.w3.org/2000/svg" viewBox="0 0 512 512" role="img" aria-label="Le Panapé de Caméla">
  <rect width="512" height="512" rx="112" fill="#fcf1e4"/>
  <path d="M494.08,256.00 C494.08,263.03 478.30,270.83 470.00,277.08 C461.71,283.32 445.68,286.57 444.31,293.46 C442.94,300.35 456.51,309.48 461.78,318.42 C467.05,327.36 478.65,340.62 475.96,347.11 C473.27,353.60 455.70,354.78 445.65,357.37 C435.60,359.96 419.55,356.83 415.64,362.67 C411.74,368.51 420.78,382.14 422.23,392.42 C423.68,402.70 429.32,419.38 424.35,424.35 C419.38,429.32 402.70,423.68 392.42,422.23 C382.14,420.78 368.51,411.74 362.67,415.64 C356.83,419.55 359.96,435.60 357.37,445.65 C354.78,455.70 353.60,473.27 347.11,475.96 C340.62,478.65 327.36,467.05 318.42,461.78 C309.48,456.51 300.35,442.94 293.46,444.31 C286.57,445.68 283.32,461.71 277.08,470.00 C270.83,478.30 263.03,494.08 256.00,494.08 C248.97,494.08 241.17,478.30 234.92,470.00 C228.68,461.71 225.43,445.68 218.54,444.31 C211.65,442.94 202.52,456.51 193.58,461.78 C184.64,467.05 171.38,478.65 164.89,475.96 C158.40,473.27 157.22,455.70 154.63,445.65 C152.04,435.60 155.17,419.55 149.33,415.64 C143.49,411.74 129.86,420.78 119.58,422.23 C109.30,423.68 92.62,429.32 87.65,424.35 C82.68,419.38 88.32,402.70 89.77,392.42 C91.22,382.14 100.26,368.51 96.36,362.67 C92.45,356.83 76.40,359.96 66.35,357.37 C56.30,354.78 38.73,353.60 36.04,347.11 C33.35,340.62 44.95,327.36 50.22,318.42 C55.49,309.48 69.06,300.35 67.69,293.46 C66.32,286.57 50.29,283.32 42.00,277.08 C33.70,270.83 17.92,263.03 17.92,256.00 C17.92,248.97 33.70,241.17 42.00,234.92 C50.29,228.68 66.32,225.43 67.69,218.54 C69.06,211.65 55.49,202.52 50.22,193.58 C44.95,184.64 33.35,171.38 36.04,164.89 C38.73,158.40 56.30,157.22 66.35,154.63 C76.40,152.04 92.45,155.17 96.36,149.33 C100.26,143.49 91.22,129.86 89.77,119.58 C88.32,109.30 82.68,92.62 87.65,87.65 C92.62,82.68 109.30,88.32 119.58,89.77 C129.86,91.22 143.49,100.26 149.33,96.36 C155.17,92.45 152.04,76.40 154.63,66.35 C157.22,56.30 158.40,38.73 164.89,36.04 C171.38,33.35 184.64,44.95 193.58,50.22 C202.52,55.49 211.65,69.06 218.54,67.69 C225.43,66.32 228.68,50.29 234.92,42.00 C241.17,33.70 248.97,17.92 256.00,17.92 C263.03,17.92 270.83,33.70 277.08,42.00 C283.32,50.29 286.57,66.32 293.46,67.69 C300.35,69.06 309.48,55.49 318.42,50.22 C327.36,44.95 340.62,33.35 347.11,36.04 C353.60,38.73 354.78,56.30 357.37,66.35 C359.96,76.40 356.83,92.45 362.67,96.36 C368.51,100.26 382.14,91.22 392.42,89.77 C402.70,88.32 419.38,82.68 424.35,87.65 C429.32,92.62 423.68,109.30 422.23,119.58 C420.78,129.86 411.74,143.49 415.64,149.33 C419.55,155.17 435.60,152.04 445.65,154.63 C455.70,157.22 473.27,158.40 475.96,164.89 C478.65,171.38 467.05,184.64 461.78,193.58 C456.51,202.52 442.94,211.65 444.31,218.54 C445.68,225.43 461.71,228.68 470.00,234.92 C478.30,241.17 494.08,248.97 494.08,256.00 Z" fill="#a5431e"/>
  <g transform="translate(256 256) scale(9.83) translate(-12 -12)">
    <g fill="#fcf1e4">
      <ellipse cx="12" cy="7.4" rx="2.7" ry="3.9"/>
      <ellipse cx="12" cy="7.4" rx="2.7" ry="3.9" transform="rotate(60 12 12)"/>
      <ellipse cx="12" cy="7.4" rx="2.7" ry="3.9" transform="rotate(120 12 12)"/>
      <ellipse cx="12" cy="7.4" rx="2.7" ry="3.9" transform="rotate(180 12 12)"/>
      <ellipse cx="12" cy="7.4" rx="2.7" ry="3.9" transform="rotate(240 12 12)"/>
      <ellipse cx="12" cy="7.4" rx="2.7" ry="3.9" transform="rotate(300 12 12)"/>
    </g>
    <circle cx="12" cy="12" r="2.6" fill="#a5431e"/>
  </g>
</svg>
