<svg xmlns="http://www.w3.org/2000/svg" viewBox="0 0 512 512" role="img" aria-label="Le Panapé de Caméla">
  <rect width="512" height="512" rx="112" fill="#15508c"/>
  <rect x="28" y="28" width="456" height="456" rx="86" fill="none" stroke="#f4a81d" stroke-width="14"/>
  <!-- divine rays -->
  <g fill="#f4a81d" opacity="0.85">
    <path d="M256 96 247 150 265 150z"/>
    <path d="M404 144 365 178 384 198z" transform="rotate(45 256 256)"/>
    <path d="M404 144 365 178 384 198z" transform="rotate(-45 256 256)"/>
    <path d="M416 256 362 247 362 265z"/>
    <path d="M96 256 150 247 150 265z"/>
  </g>
  <!-- crown of flame rising from the heart -->
  <path d="M256 198C230 170 246 148 256 116 266 148 282 170 256 198Z" fill="#f4a81d" stroke="#2a1a17" stroke-width="9" stroke-linejoin="round"/>
  <!-- heart -->
  <path d="M256 432C150 354 110 286 110 222c0-46 36-74 76-74 34 0 58 22 70 52 12-30 36-52 70-52 40 0 76 28 76 74 0 64-40 132-146 210z" fill="#d62828" stroke="#2a1a17" stroke-width="16" stroke-linejoin="round"/>
  <!-- inner flame -->
  <path d="M256 250c-16 26 14 38 0 64-20-12-22-44 0-64z" fill="#f4a81d"/>
</svg>
